<svg xmlns="http://www.w3.org/2000/svg" viewBox="0 0 244.45 350.2"><title>logo</title><g id="Calque_2" data-name="Calque 2"><g id="Calque_1-2" data-name="Calque 1"><path d="M122.16,244.32c67.29,0,122.15-54.8,122.29-122.16A122.3,122.3,0,0,0,122.29,0C55,0,.14,54.79,0,122.15A122.11,122.11,0,0,0,122.16,244.32ZM32.29,122.16c0-25.39,9-48.36,25.32-64.68S96.9,32.16,122.29,32.16s48.36,9,64.68,25.32,25.32,39.29,25.32,64.68-9,48.36-25.32,64.68-39.29,25.32-64.68,25.32-48.36-9-64.68-25.32S32.29,147.54,32.29,122.16Z"/><rect x="35.38" y="318.04" width="173.69" height="32.16"/></g></g></svg>