<svg xmlns="http://www.w3.org/2000/svg" viewBox="0 0 670.3 270.2"><title>logo2</title><g id="Calque_2" data-name="Calque 2"><g id="Calque_1-2" data-name="Calque 1"><polygon points="670.3 25.5 670.3 0 481.6 0 481.6 270.2 670.3 270.2 670.3 244.7 507.2 244.7 507.2 204.2 592.6 204.2 592.6 178.7 507.2 178.7 507.2 25.5 670.3 25.5"/><path d="M335.2.2a94.59,94.59,0,0,0-94.4,94.29,94.27,94.27,0,0,0,94.3,94.31A94.3,94.3,0,1,0,335.2.2ZM404,94.5c0,19.41-6.87,37-19.35,49.45s-30,19.35-49.45,19.35-37-6.87-49.45-19.35-19.35-30-19.35-49.45,6.87-37,19.35-49.45,30-19.35,49.45-19.35,37,6.87,49.45,19.35S404,75.09,404,94.5Z"/><rect x="268" y="244.7" width="134.3" height="25.5"/><polygon points="0 25.5 154.74 25.5 0 248.13 0 270.2 188.7 270.2 188.7 244.7 33.96 244.7 188.7 22.07 188.7 0 0 0 0 25.5"/></g></g></svg>